<?xml version="1.0" encoding="utf-8"?>
<!-- Generator: Adobe Illustrator 16.0.0, SVG Export Plug-In . SVG Version: 6.00 Build 0)  -->
<!DOCTYPE svg PUBLIC "-//W3C//DTD SVG 1.0//EN" "http://www.w3.org/TR/2001/REC-SVG-20010904/DTD/svg10.dtd">
<svg version="1.0" id="Layer_1" xmlns="http://www.w3.org/2000/svg" xmlns:xlink="http://www.w3.org/1999/xlink" x="0px" y="0px"
	 width="93.543px" height="25.512px" viewBox="0 0 93.543 25.512" enable-background="new 0 0 93.543 25.512" xml:space="preserve">
<g>
	<path fill="none" d="M13.649,16.355c-0.135,0.186-0.285,0.356-0.443,0.521c0.236,0.103,0.502,0.179,0.814,0.229
		c0.351,0.059,0.681,0.069,1.005,0.069c-0.364-0.427-0.714-0.87-1.045-1.331C13.879,16.017,13.77,16.188,13.649,16.355z"/>
	<path fill="#B5C634" d="M26.433,21.462c-0.234-0.413-0.54-0.776-0.885-1.065c-0.744-0.76-1.565-1.418-2.479-1.932
		c-0.393-0.207-0.805-0.357-1.243-0.462c-0.617-0.157-1.258-0.253-1.907-0.304l-0.007,0.013c-0.104,0.243,0.196,1.018,0.343,1.167
		c0.142,0.152,0.314,0.291,0.464,0.429c0.148,0.141,0.298,0.279,0.437,0.439c0.104,0.166,0.223,0.319,0.37,0.453
		c-0.303-0.168-0.594-0.387-0.925-0.519c-0.392-0.152-0.545,0.01-0.425,0.48c0.276,1.037,0.828,1.847,0.917,2.998
		c0.042,0.518,0.046,1.043,0.001,1.587c0,0.164-0.218,0.992-0.055,1.113c0.154,0.124,0.322-0.424,0.356-0.561
		c0.147-0.58,0.196-1.162,0.12-1.695c-0.071-0.936-0.271-1.823-0.4-2.737c0.233,0.284,0.546,0.476,0.896,0.55
		c0.391,0.021,0.515-0.363,0.45-0.726c-0.169-0.938-1.129-1.204-1.344-2.126c1.098,0.259,2.091,0.777,2.926,1.522
		c0.419,0.376,0.826,0.767,1.264,1.111c0.257,0.187,0.643,0.608,1.005,0.608C26.576,21.801,26.534,21.67,26.433,21.462z"/>
	<path fill="#F39B1F" d="M18.979,17.457c0.005,0.596-0.008,1.197-0.033,1.803c0.056-0.072,0.117-0.134,0.162-0.205
		c-0.046-0.306,0.107-1.021,0.041-1.606c-0.009-0.054-0.034-0.099-0.044-0.154c-0.036,0.033-0.065,0.067-0.103,0.099
		C19.001,17.398,18.98,17.438,18.979,17.457z"/>
	<path fill="#F39B1F" d="M13.98,15.844c0.332,0.461,0.681,0.904,1.045,1.331c1.208,0,2.242-0.379,3.133-1.171
		c-1.062-0.971-2.255-1.784-3.342-2.676c-0.095,0.658-0.257,1.3-0.524,1.91C14.205,15.441,14.099,15.645,13.98,15.844z"/>
	<path fill="#F39B1F" d="M17.414,18.315c-0.029,0.008-0.064,0.014-0.094,0.023c-0.325,0.091-0.64,0.174-0.957,0.245
		c0.308,0.287,0.623,0.56,0.946,0.809c0.008,0.003,0.018,0.007,0.026,0.009c0.011-0.148,0.024-0.301,0.034-0.449
		C17.384,18.737,17.399,18.522,17.414,18.315z"/>
	<path fill="#F39B1F" d="M18.171,16.017c-0.005-0.003-0.01-0.009-0.013-0.013c-0.891,0.792-1.925,1.171-3.133,1.171
		c0.427,0.499,0.87,0.976,1.337,1.409c0.317-0.071,0.632-0.154,0.957-0.245c0.029-0.01,0.064-0.016,0.094-0.023
		c-0.015,0.207-0.029,0.422-0.044,0.637c-0.01,0.148-0.023,0.301-0.034,0.449c0.496,0.159,1.025,0.366,1.413,0.109
		c0.07-0.074,0.132-0.166,0.197-0.251c0.025-0.605,0.038-1.207,0.033-1.803c0.001-0.02,0.022-0.059,0.023-0.064
		c0.037-0.031,0.066-0.065,0.103-0.099c-0.098-0.463-0.275-0.885-0.56-1.206C18.443,16.019,18.312,15.987,18.171,16.017z"/>
</g>
<g>
	<path fill-rule="evenodd" clip-rule="evenodd" fill="#FFFFFF" d="M81.715,10.8c-0.776,0-1.466,0.018-2.155-0.015
		c-0.142-0.007-0.273-0.203-0.308-0.231c-1.032,0.074-2.021,0.145-3.102,0.222c0,0.194,0,0.399,0,0.603
		c0,2.572-0.003,5.146-0.006,7.72c0,0.172,0.057,0.398-0.031,0.511c-0.164,0.203-0.404,0.45-0.634,0.469
		c-0.165,0.015-0.408-0.283-0.528-0.49c-0.088-0.148-0.038-0.377-0.038-0.571c0.006-2.495,0.013-4.989,0.021-7.486
		c0.002-0.208,0-0.419,0-0.683c-0.593,0-1.139-0.011-1.684,0.005c-0.431,0.014-0.776-0.09-0.784-0.571
		c-0.003-0.467,0.328-0.604,0.759-0.62c1.701-0.066,3.403-0.163,5.105-0.201c0.341-0.008,0.688,0.188,0.976,0.396
		c0.201-0.063,0.4-0.171,0.604-0.182c1.781-0.088,3.562-0.159,5.342-0.233c0.367-0.015,0.695,0.076,0.768,0.477
		c0.085,0.464-0.186,0.689-0.636,0.716c-0.785,0.046-1.574,0.076-2.451,0.117c0,0.224,0,0.427,0,0.631
		c-0.001,2.573-0.004,5.147-0.008,7.72c0,0.175,0.058,0.401-0.028,0.51c-0.166,0.205-0.409,0.449-0.639,0.468
		c-0.164,0.013-0.403-0.284-0.525-0.493c-0.087-0.148-0.038-0.377-0.036-0.57c0.004-2.496,0.013-4.99,0.02-7.488
		C81.715,11.318,81.715,11.109,81.715,10.8z"/>
	<path fill-rule="evenodd" clip-rule="evenodd" fill="#F39B1F" d="M55.004,21.354c-0.129,0.149-0.2,0.222-0.259,0.301
		c-2.245,3.072-5.222,3.212-7.691,0.363c-3.271-3.771-3.642-10.171-0.824-14.255c2.141-3.109,6.009-3.104,8.022,0.097
		c2.02,3.21,2.468,6.761,1.781,10.446c-0.142,0.758-0.044,1.248,0.577,1.696c0.437,0.308,0.812,0.696,1.213,1.054
		c0.547,0.487,0.755,1.078,0.197,1.645c-0.51,0.525-1.096,0.395-1.611-0.086C55.972,22.203,55.517,21.809,55.004,21.354z
		 M53.832,17.551c0.557-3.038,0.279-5.852-1.256-8.4c-1.351-2.243-3.479-2.155-4.823,0.104c-2.037,3.423-1.605,8.482,0.986,11.508
		c1.42,1.662,2.991,1.573,4.251-0.217c0.326-0.466,0.3-0.746-0.12-1.175c-1.189-1.216-2.303-2.499-3.442-3.761
		c-0.514-0.567-0.717-1.189,0-1.717c0.729-0.534,1.229-0.082,1.698,0.49C52.006,15.457,52.925,16.495,53.832,17.551z"/>
	<path fill-rule="evenodd" clip-rule="evenodd" fill="#FFFFFF" d="M59.127,16.486c0,1.056-0.006,1.964,0.004,2.87
		c0.007,0.44-0.115,0.814-0.611,0.829c-0.516,0.014-0.643-0.391-0.642-0.809c0.003-2.959,0.014-5.919,0.029-8.88
		c0.002-0.458,0.205-0.754,0.713-0.843c1.36-0.238,2.688-0.222,3.918,0.469c1.522,0.857,1.861,2.776,0.645,4.009
		c-0.546,0.552-1.302,0.915-1.982,1.331c-0.26,0.159-0.576,0.229-0.951,0.37c0.577,0.583,1.105,1.119,1.639,1.65
		c0.541,0.54,1.08,1.079,1.628,1.612c0.316,0.309,0.6,0.645,0.196,1.039c-0.435,0.427-0.779,0.108-1.104-0.215
		c-0.98-0.983-1.964-1.964-2.949-2.945C59.526,16.843,59.38,16.717,59.127,16.486z M59.158,14.818
		c1.21-0.25,2.326-0.584,3.141-1.507c0.507-0.573,0.489-1.351,0.014-1.848c-0.607-0.639-2.286-0.953-3.154-0.584
		C59.158,12.164,59.158,13.453,59.158,14.818z"/>
	<path fill-rule="evenodd" clip-rule="evenodd" fill="#FFFFFF" d="M71.901,14.481c-0.009,1.353-0.236,2.654-0.938,3.846
		c-0.107,0.182-0.225,0.363-0.359,0.532c-1.402,1.743-3.354,1.671-4.616-0.167c-1.67-2.432-1.385-6.1,0.64-8.243
		c1.446-1.531,3.44-1.313,4.487,0.503C71.743,12.045,71.913,13.247,71.901,14.481z M70.831,14.383
		c-0.236-0.906-0.366-1.858-0.741-2.706c-0.568-1.272-1.684-1.371-2.624-0.342c-1.52,1.664-1.781,4.606-0.583,6.505
		c0.905,1.431,2.126,1.402,2.992-0.075c0.041-0.067,0.075-0.138,0.109-0.206C70.502,16.572,70.644,15.508,70.831,14.383z"/>
	<path fill-rule="evenodd" clip-rule="evenodd" fill="#FFFFFF" d="M88.189,14.253c1.001-0.08,1.966-0.155,2.93-0.231
		c0.215-0.016,0.47-0.107,0.64-0.027c0.231,0.104,0.535,0.33,0.554,0.526c0.016,0.192-0.253,0.555-0.452,0.594
		c-0.674,0.139-1.372,0.169-2.06,0.233c-0.528,0.052-1.06,0.09-1.62,0.136c0,1.119,0,2.21,0,3.373
		c1.26-0.058,2.48-0.113,3.698-0.171c0.158-0.007,0.317-0.038,0.475-0.029c0.383,0.02,0.711,0.212,0.645,0.589
		c-0.041,0.23-0.351,0.55-0.581,0.586c-0.719,0.115-1.457,0.123-2.188,0.156c-0.813,0.036-1.624,0.057-2.436,0.082
		c-0.599,0.019-0.857-0.181-0.857-0.77c0.003-2.805,0.017-5.608,0.054-8.411c0.011-0.803,0.207-0.95,1.038-1.009
		c1.363-0.095,2.727-0.189,4.088-0.293c0.438-0.033,0.812,0.04,0.908,0.526c0.078,0.394-0.251,0.663-0.819,0.7
		c-1.319,0.083-2.64,0.165-4.016,0.249C88.189,12.116,88.189,13.132,88.189,14.253z"/>
	<path fill-rule="evenodd" clip-rule="evenodd" fill="#FFFFFF" d="M37.902,16.06c-0.968,0.123-1.867,0.226-2.761,0.37
		c-0.141,0.022-0.303,0.226-0.361,0.38c-0.341,0.863-0.653,1.739-0.976,2.609c-0.152,0.41-0.366,0.798-0.897,0.59
		c-0.507-0.199-0.428-0.604-0.268-1.026c1.111-2.954,2.204-5.915,3.333-8.863c0.093-0.24,0.388-0.506,0.636-0.566
		c0.396-0.09,0.563,0.252,0.667,0.591c0.913,2.938,1.831,5.875,2.744,8.811c0.04,0.13,0.077,0.263,0.094,0.396
		c0.044,0.367-0.059,0.675-0.469,0.752c-0.404,0.074-0.626-0.154-0.728-0.519c-0.274-0.968-0.55-1.936-0.826-2.903
		C38.032,16.48,37.969,16.279,37.902,16.06z M36.581,11.968c-0.421,1.13-0.793,2.129-1.21,3.253
		c0.778-0.137,1.428-0.252,2.142-0.377C37.205,13.89,36.915,13.001,36.581,11.968z"/>
	<path fill-rule="evenodd" clip-rule="evenodd" fill="#FFFFFF" d="M28.081,18.885c1.065-0.074,2.032-0.142,2.999-0.209
		c0.218-0.016,0.47-0.109,0.645-0.032c0.25,0.108,0.555,0.3,0.638,0.527c0.129,0.343-0.14,0.587-0.503,0.636
		c-0.47,0.061-0.946,0.086-1.419,0.12c-0.907,0.065-1.817,0.145-2.725,0.186c-0.636,0.027-0.881-0.195-0.881-0.817
		c-0.005-3,0.01-5.999,0.023-8.997c0.003-0.41,0.149-0.757,0.64-0.734c0.473,0.023,0.593,0.362,0.593,0.778
		c-0.007,2.574-0.007,5.147-0.01,7.721C28.081,18.311,28.081,18.558,28.081,18.885z"/>
</g>
<g>
	<g>
		<path fill="#FFFFFF" d="M17.335,19.401c-0.063,0.938-0.13,1.888-0.216,2.836c-0.044,0.486-0.125,0.987-0.207,1.474
			c-0.03,0.209-0.065,0.425-0.1,0.638c-0.072,0.475,0.163,0.843,0.6,0.938c0.065,0.016,0.13,0.021,0.192,0.021
			c0.301,0,0.659-0.179,0.768-0.68c0.006-0.031,0.008-0.063,0.019-0.108c0.298-1.77,0.483-3.532,0.555-5.261
			c-0.065,0.085-0.127,0.177-0.197,0.251C18.361,19.768,17.832,19.561,17.335,19.401z"/>
		<path fill="#FFFFFF" d="M20.656,8.73c-0.495-1.316-1.332-2.521-2.639-3.794c-0.653-0.637-1.059-1.38-1.208-2.21
			c-0.068-0.385-0.098-0.78-0.126-1.197l-0.025-0.312c-0.046-0.592-0.434-0.804-0.813-0.804c-0.45,0.012-0.766,0.354-0.766,0.832
			c0.001,1.231,0.194,2.223,0.608,3.125c0.372,0.804,0.939,1.414,1.492,1.97c1.957,1.972,2.751,4.143,2.423,6.643
			c-0.173,1.324-0.615,2.274-1.396,2.985c-0.016,0.014-0.034,0.021-0.049,0.035c0.003,0.004,0.008,0.01,0.013,0.013
			c0.141-0.029,0.271,0.002,0.374,0.071c0.284,0.321,0.462,0.743,0.56,1.206c0.743-0.655,1.284-1.414,1.594-2.263
			C21.464,12.958,21.45,10.838,20.656,8.73z"/>
		<path fill="#FFFFFF" d="M2.792,2.383l0.168-1.48L2.786,0.741c-0.081-0.1-0.232-0.286-0.482-0.349
			C2.236,0.375,2.169,0.366,2.103,0.366c-0.297,0-0.671,0.198-0.742,0.754C1.312,1.503,1.266,1.886,1.219,2.269L1.143,2.893
			c-0.41,3.302-0.628,6.654-0.651,9.961c-0.021,2.872,0.125,5.699,0.43,8.412c0.095,0.845,0.215,1.694,0.331,2.519l0.105,0.752
			c0.063,0.458,0.395,0.787,0.791,0.787c0.173,0,0.337-0.064,0.473-0.181c0.239-0.212,0.324-0.592,0.284-0.857
			c-0.521-3.479-0.791-6.751-0.826-9.983c-0.034-3.185,0.112-6.357,0.435-9.428C2.6,4.057,2.694,3.239,2.792,2.383z"/>
	</g>
	<path fill="#FFFFFF" d="M15.026,17.175c-0.324,0-0.654-0.011-1.005-0.069c-0.312-0.05-0.578-0.126-0.814-0.229
		c0.158-0.165,0.308-0.336,0.443-0.521c0.121-0.168,0.23-0.339,0.332-0.512c0.118-0.199,0.224-0.402,0.312-0.605
		c0.268-0.61,0.43-1.252,0.524-1.91c0.128-0.895,0.116-1.825-0.073-2.794c-0.443-2.278-1.681-4.039-3.68-5.23
		c-0.497-0.296-0.956-0.18-1.196,0.231C9.697,5.83,9.624,6.266,10.245,6.663l0.111,0.069c0.275,0.175,0.533,0.339,0.754,0.532
		c1.479,1.317,2.201,2.882,2.205,4.748c0,0.517-0.043,1.052-0.155,1.617c-0.048,0.244-0.135,0.454-0.21,0.675
		c-0.407,1.175-1.188,2.02-2.369,2.466c-1.621,0.61-3.073,0.513-4.366-0.3c-0.411-0.259-0.864-0.165-1.109,0.207
		c-0.254,0.387-0.157,0.845,0.239,1.108c0.169,0.115,0.37,0.251,0.591,0.358c0.697,0.339,1.452,0.53,2.243,0.558
		c0.379,0.015,0.756,0.009,1.149,0.009c0.018,0,0.036,0,0.054,0v1.987c0,1.228,0,2.458,0,3.688c0,0.813,0.536,0.913,0.797,0.92
		c0.287,0,0.463-0.119,0.563-0.223c0.236-0.242,0.224-0.579,0.218-0.726v-0.063V24.25v-5.938c0.175-0.069,0.343-0.146,0.507-0.227
		c0.12-0.052,0.243-0.106,0.371-0.162c1.132,0.728,2.455,0.985,3.929,0.777c0.202-0.025,0.397-0.071,0.596-0.117
		C15.896,18.15,15.453,17.674,15.026,17.175z"/>
</g>
</svg>
